<?xml version="1.0" standalone="no"?>
<!DOCTYPE svg PUBLIC "-//W3C//DTD SVG 20010904//EN"
 "http://www.w3.org/TR/2001/REC-SVG-20010904/DTD/svg10.dtd">
<svg version="1.0" xmlns="http://www.w3.org/2000/svg"
 width="300.000000pt" height="132.000000pt" viewBox="0 0 300.000000 132.000000"
 preserveAspectRatio="xMidYMid meet">
<metadata>
Created by potrace 1.10, written by Peter Selinger 2001-2011
</metadata>
<g transform="translate(0.000000,132.000000) scale(0.100000,-0.100000)"
fill="#ffc019" stroke="none">
<path d="M800 1010 c0 -82 3 -100 15 -100 12 0 15 18 15 100 0 82 -3 100 -15
100 -12 0 -15 -18 -15 -100z"/>
<path d="M482 1012 c12 -29 91 -163 98 -167 5 -3 11 -2 14 3 7 12 -87 172
-102 172 -8 0 -12 -3 -10 -8z"/>
<path d="M1120 1010 c0 -6 -18 -40 -40 -76 -38 -63 -49 -94 -32 -94 7 0 102
160 102 173 0 4 -7 7 -15 7 -8 0 -15 -5 -15 -10z"/>
<path d="M732 869 c-118 -23 -248 -125 -297 -232 -26 -56 -51 -164 -41 -175
10 -10 24 11 29 43 24 147 93 246 217 307 62 31 71 33 175 33 106 0 114 -2
176 -33 36 -18 84 -51 107 -74 44 -42 96 -138 107 -198 4 -19 11 -40 16 -46 6
-8 3 -13 -11 -17 -11 -3 -18 -1 -15 4 7 10 -50 39 -132 67 -67 23 -203 43
-203 30 0 -4 16 -8 35 -8 43 0 38 1 77 -12 18 -5 42 -11 53 -14 36 -6 119 -37
140 -51 25 -17 8 -17 -41 1 -132 46 -416 52 -553 10 -25 -8 -53 -14 -61 -14
-28 0 10 18 92 45 91 29 115 33 191 34 31 1 57 5 57 11 0 12 -113 3 -190 -15
-113 -26 -240 -93 -333 -174 -46 -41 -49 -61 -4 -28 52 40 150 85 244 113 125
37 318 44 453 16 109 -22 230 -70 301 -118 27 -18 49 -29 49 -25 0 8 -52 58
-95 90 -24 19 -32 35 -42 86 -43 235 -269 390 -501 344z"/>
<path d="M246 781 c-6 -9 12 -22 116 -80 92 -52 76 -17 -18 38 -95 56 -91 55
-98 42z"/>
<path d="M1300 749 c-36 -22 -72 -44 -80 -49 -10 -6 -12 -12 -5 -19 12 -12
178 86 170 100 -9 13 -13 11 -85 -32z"/>
<path d="M1686 718 c-11 -33 -23 -154 -16 -161 4 -5 29 -7 56 -5 36 2 49 7 49
18 0 10 -12 16 -38 18 -41 4 -46 23 -8 32 28 6 30 22 3 36 -25 12 -16 31 18
35 14 2 25 11 25 19 0 20 -83 27 -89 8z"/>
<path d="M2722 707 c-30 -32 -28 -52 8 -79 42 -31 40 -52 -4 -44 -41 8 -59
-10 -31 -31 27 -19 62 -16 85 7 28 28 25 47 -12 82 -31 28 -31 31 -14 44 11 7
16 20 13 29 -9 21 -20 19 -45 -8z"/>
<path d="M2287 690 c-25 -30 -43 -77 -49 -130 -4 -33 29 -41 34 -8 2 15 11 24
26 26 18 3 22 -1 22 -22 0 -17 6 -26 15 -26 24 0 27 22 18 107 -9 90 -25 103
-66 53z m33 -50 c0 -20 -5 -30 -15 -30 -18 0 -19 14 -5 41 15 27 20 24 20 -11z"/>
<path d="M2391 707 c-13 -16 -5 -27 19 -27 13 0 15 -10 12 -66 -4 -60 -3 -66
14 -62 16 3 20 14 22 66 3 58 4 62 27 62 28 0 34 24 9 34 -28 11 -91 6 -103
-7z"/>
<path d="M2537 706 c-7 -17 1 -26 23 -26 13 0 15 -10 12 -66 -4 -60 -3 -66 14
-62 16 3 20 14 22 66 3 58 4 62 27 62 27 0 32 9 13 28 -17 17 -104 16 -111 -2z"/>
<path d="M2037 704 c-12 -12 -7 -118 6 -144 10 -19 21 -25 47 -25 19 -1 41 -4
47 -8 22 -14 61 36 68 86 9 58 4 81 -18 85 -14 3 -17 -4 -17 -42 0 -52 -16
-100 -30 -91 -5 3 -10 15 -10 26 0 25 -30 25 -37 -1 -11 -40 -22 -18 -25 47
-3 61 -14 84 -31 67z"/>
<path d="M1885 640 c-12 -20 7 -30 61 -30 47 0 55 3 52 18 -2 13 -15 18 -55
20 -28 2 -54 -2 -58 -8z"/>
<path d="M160 460 c0 -6 40 -10 100 -10 60 0 100 4 100 10 0 6 -40 10 -100 10
-60 0 -100 -4 -100 -10z"/>
<path d="M1280 460 c0 -6 38 -10 95 -10 57 0 95 4 95 10 0 6 -38 10 -95 10
-57 0 -95 -4 -95 -10z"/>
</g>
</svg>
