<?xml version="1.0" standalone="no"?>
<!DOCTYPE svg PUBLIC "-//W3C//DTD SVG 20010904//EN"
 "http://www.w3.org/TR/2001/REC-SVG-20010904/DTD/svg10.dtd">
<svg version="1.0" xmlns="http://www.w3.org/2000/svg"
 width="300.000000pt" height="273.000000pt" viewBox="0 0 300.000000 273.000000"
 preserveAspectRatio="xMidYMid meet">
<metadata>
Created by potrace 1.10, written by Peter Selinger 2001-2011
</metadata>
<g transform="translate(0.000000,273.000000) scale(0.050000,-0.050000)"
fill="#febf18" stroke="none">
<path d="M3009 4756 c-34 -90 2 -766 41 -766 58 0 63 775 5 786 -19 4 -40 -5
-46 -20z"/>
<path d="M1742 4412 c-44 -53 350 -702 411 -678 45 17 32 60 -70 232 -53 90
-137 231 -185 313 -94 159 -118 179 -156 133z"/>
<path d="M4285 4415 c-11 -14 -87 -142 -169 -285 -82 -143 -161 -280 -177
-305 -38 -60 22 -135 68 -84 61 67 376 643 365 670 -13 36 -60 38 -87 4z"/>
<path d="M2680 3818 c-631 -141 -1139 -657 -1269 -1287 -38 -182 -40 -324 -6
-337 14 -5 21 -13 15 -17 -5 -5 -68 -55 -140 -112 -139 -109 -339 -305 -312
-305 9 0 78 41 152 90 1129 751 2811 755 3947 11 87 -57 163 -98 169 -92 14
15 -167 183 -361 336 -153 120 -155 123 -155 213 -2 943 -1059 1721 -2040
1500z m774 -161 c18 -15 48 -24 67 -21 20 3 41 -4 48 -15 8 -12 -6 -21 -33
-21 -36 -1 -39 -5 -17 -19 18 -11 43 -10 66 2 21 11 53 14 72 6 29 -12 29 -15
-7 -31 -29 -13 -19 -15 35 -7 60 9 75 4 75 -21 0 -18 9 -27 20 -20 11 7 20 4
20 -7 0 -11 21 -27 47 -36 40 -15 172 -118 294 -230 19 -19 42 -28 50 -20 8 7
7 -9 -1 -35 -12 -39 -9 -46 18 -36 23 9 32 1 32 -32 1 -36 4 -38 20 -14 16 24
19 21 20 -15 0 -25 9 -45 20 -45 11 0 20 -13 20 -28 0 -16 9 -32 21 -36 12 -4
24 -23 26 -43 3 -20 14 -42 25 -50 27 -19 68 -118 68 -164 0 -21 8 -39 17 -39
10 0 33 -52 53 -115 19 -63 55 -153 81 -199 l45 -85 -160 81 c-974 490 -1951
469 -2890 -61 -132 -75 -143 -78 -135 -38 4 24 18 50 29 57 12 7 26 40 32 72
5 32 22 99 36 148 15 50 28 97 30 105 11 42 90 207 105 216 10 7 22 33 27 59
5 26 18 56 30 68 11 11 20 36 20 56 0 20 9 36 20 36 11 0 20 -10 20 -21 0 -12
11 -15 24 -7 19 12 19 17 0 23 -38 13 -28 47 11 41 23 -4 34 6 32 30 -2 20 1
33 6 27 12 -12 107 83 107 108 0 10 11 17 25 14 14 -3 22 10 19 30 -4 23 7 35
34 35 21 0 56 21 76 46 44 56 101 95 76 52 -16 -27 87 54 113 90 7 10 32 13
55 7 23 -6 37 -3 31 7 -6 10 5 24 25 30 20 6 56 21 80 32 24 12 62 16 85 11
22 -6 36 -4 30 6 -9 16 41 29 171 44 143 17 604 -3 634 -28z"/>
<path d="M800 3462 c0 -36 91 -98 370 -253 55 -30 134 -77 176 -103 86 -54
144 -54 144 1 0 27 -87 88 -307 215 -314 182 -383 208 -383 140z"/>
<path d="M5172 3470 c-21 -16 -159 -97 -306 -181 -261 -149 -319 -206 -224
-225 29 -5 570 290 642 351 76 65 -30 117 -112 55z"/>
<path d="M474 2227 c-40 -40 20 -47 388 -47 312 0 399 6 393 25 -9 27 -755 48
-781 22z"/>
<path d="M4873 2227 c-39 -40 21 -47 377 -47 333 0 390 4 390 30 0 31 -736 47
-767 17z"/>
<path d="M1534 1706 c-24 -38 -76 -472 -59 -489 28 -28 307 4 319 36 21 55
-33 86 -126 74 -89 -13 -101 -3 -76 61 8 21 27 28 57 21 59 -15 107 38 71 81
-14 17 -42 30 -64 30 -29 0 -37 12 -32 45 5 38 18 45 86 45 72 0 80 5 80 50 0
51 -228 92 -256 46z"/>
<path d="M4562 1668 c-82 -104 -64 -201 48 -252 62 -28 79 -75 40 -114 -25
-26 -38 -27 -70 -7 -52 33 -90 31 -119 -4 -40 -48 42 -111 146 -111 213 0 241
233 42 354 -37 22 -37 25 19 71 39 33 55 60 46 82 -20 51 -105 40 -152 -19z"/>
<path d="M3304 1632 c-130 -149 -202 -482 -104 -482 42 0 52 11 60 70 14 96
120 119 120 26 1 -75 27 -112 72 -103 35 7 38 29 38 249 0 320 -54 390 -186
240z m76 -162 c0 -57 -8 -70 -40 -70 -49 0 -49 8 -6 82 44 73 46 73 46 -12z"/>
<path d="M3587 1670 c-19 -50 9 -90 62 -90 l50 0 -13 -192 -12 -191 58 6 58 7
10 180 10 180 65 6 c69 7 88 53 41 100 -37 37 -314 32 -329 -6z"/>
<path d="M4033 1687 c-39 -40 -12 -107 44 -107 l57 0 -10 -190 -9 -190 50 0
c65 0 75 29 75 222 l0 158 70 0 c74 0 96 46 46 96 -25 25 -299 34 -323 11z"/>
<path d="M2554 1648 c-26 -27 -15 -327 15 -399 33 -78 98 -112 165 -87 26 10
49 9 56 -3 23 -37 142 -21 185 26 98 105 117 445 25 445 -48 0 -50 -5 -61
-165 -14 -218 -77 -300 -103 -135 -8 50 -92 67 -106 21 -6 -17 -15 -46 -21
-64 -24 -78 -54 19 -56 186 -3 176 -37 236 -99 175z"/>
<path d="M2122 1472 c-50 -60 -12 -92 117 -95 67 -2 136 -4 154 -5 42 -2 83
60 57 85 -40 38 -300 49 -328 15z"/>
</g>
</svg>
